<svg width="51" height="51" viewBox="0 0 51 51" fill="none" xmlns="http://www.w3.org/2000/svg">
<g filter="url(#filter0_f_40_50)">
<path fill-rule="evenodd" clip-rule="evenodd" d="M25.5 14.3908L25.4373 16.1062C25.2518 21.1786 21.236 25.2465 16.2311 25.4319L14.3937 25.5L16.2311 25.5681C21.236 25.7535 25.2518 29.8214 25.4373 34.8938L25.5 36.6092L25.5627 34.8938C25.7482 29.8214 29.764 25.7535 34.7689 25.5681L36.6063 25.5L34.7689 25.4319C29.764 25.2465 25.7482 21.1786 25.5627 16.1062L25.5 14.3908ZM25.2669 8L25.7331 8L26.0288 16.0887C26.2053 20.9137 30.0252 24.7832 34.786 24.9595L43 25.2638V25.7362L34.786 26.0405C30.0252 26.2168 26.2053 30.0863 26.0288 34.9113L25.7331 43H25.2669L24.9711 34.9113C24.7947 30.0863 20.9748 26.2168 16.214 26.0405L8 25.7362L8 25.2638L16.214 24.9595C20.9748 24.7832 24.7947 20.9137 24.9711 16.0887L25.2669 8Z" fill="white" stroke="white" stroke-linejoin="round"/>
</g>
<path fill-rule="evenodd" clip-rule="evenodd" d="M25.5 14.3908L25.4373 16.1062C25.2518 21.1786 21.236 25.2465 16.2311 25.4319L14.3937 25.5L16.2311 25.5681C21.236 25.7535 25.2518 29.8214 25.4373 34.8938L25.5 36.6092L25.5627 34.8938C25.7482 29.8214 29.764 25.7535 34.7689 25.5681L36.6063 25.5L34.7689 25.4319C29.764 25.2465 25.7482 21.1786 25.5627 16.1062L25.5 14.3908ZM25.2669 8L25.7331 8L26.0288 16.0887C26.2053 20.9137 30.0252 24.7832 34.786 24.9595L43 25.2638V25.7362L34.786 26.0405C30.0252 26.2168 26.2053 30.0863 26.0288 34.9113L25.7331 43H25.2669L24.9711 34.9113C24.7947 30.0863 20.9748 26.2168 16.214 26.0405L8 25.7362L8 25.2638L16.214 24.9595C20.9748 24.7832 24.7947 20.9137 24.9711 16.0887L25.2669 8Z" fill="white"/>
<defs>
<filter id="filter0_f_40_50" x="0.5" y="0.5" width="50" height="50" filterUnits="userSpaceOnUse" color-interpolation-filters="sRGB">
<feFlood flood-opacity="0" result="BackgroundImageFix"/>
<feBlend mode="normal" in="SourceGraphic" in2="BackgroundImageFix" result="shape"/>
<feGaussianBlur stdDeviation="3.5" result="effect1_foregroundBlur_40_50"/>
</filter>
</defs>
</svg>
