<svg width="504" height="442" viewBox="0 0 504 442" fill="none" xmlns="http://www.w3.org/2000/svg">
<g filter="url(#filter0_f_82_30)">
<path d="M234.502 97.5024L237.284 103.99C238.986 107.959 242.977 110.112 246.433 108.926L252.247 106.931L246.627 109.42C243.286 110.9 241.823 115.193 243.273 119.261L245.644 125.91L242.861 119.422C241.159 115.453 237.168 113.3 233.712 114.486L227.898 116.481L233.518 113.992C236.859 112.512 238.322 108.219 236.872 104.152L234.502 97.5024Z" fill="white"/>
<path d="M234.502 97.5024L237.284 103.99C238.986 107.959 242.977 110.112 246.433 108.926L252.247 106.931L246.627 109.42C243.286 110.9 241.823 115.193 243.273 119.261L245.644 125.91L242.861 119.422C241.159 115.453 237.168 113.3 233.712 114.486L227.898 116.481L233.518 113.992C236.859 112.512 238.322 108.219 236.872 104.152L234.502 97.5024Z" fill="white"/>
</g>
<path d="M234.502 97.5024L237.284 103.99C238.986 107.959 242.977 110.112 246.433 108.926L252.247 106.931L246.627 109.42C243.286 110.9 241.823 115.193 243.273 119.261L245.644 125.91L242.861 119.422C241.159 115.453 237.168 113.3 233.712 114.486L227.898 116.481L233.518 113.992C236.859 112.512 238.322 108.219 236.872 104.152L234.502 97.5024Z" fill="white"/>
<path d="M234.502 97.5024L237.284 103.99C238.986 107.959 242.977 110.112 246.433 108.926L252.247 106.931L246.627 109.42C243.286 110.9 241.823 115.193 243.273 119.261L245.644 125.91L242.861 119.422C241.159 115.453 237.168 113.3 233.712 114.486L227.898 116.481L233.518 113.992C236.859 112.512 238.322 108.219 236.872 104.152L234.502 97.5024Z" fill="white"/>
<g filter="url(#filter1_f_82_30)">
<path d="M162.252 106.319L163.808 109.949C164.76 112.169 166.993 113.374 168.927 112.71L172.179 111.594L169.035 112.987C167.166 113.814 166.347 116.216 167.159 118.492L168.485 122.211L166.928 118.582C165.976 116.361 163.743 115.157 161.81 115.82L158.557 116.937L161.701 115.544C163.571 114.716 164.389 112.315 163.578 110.039L162.252 106.319Z" fill="white"/>
<path d="M162.252 106.319L163.808 109.949C164.76 112.169 166.993 113.374 168.927 112.71L172.179 111.594L169.035 112.987C167.166 113.814 166.347 116.216 167.159 118.492L168.485 122.211L166.928 118.582C165.976 116.361 163.743 115.157 161.81 115.82L158.557 116.937L161.701 115.544C163.571 114.716 164.389 112.315 163.578 110.039L162.252 106.319Z" fill="white"/>
</g>
<path d="M162.252 106.319L163.808 109.949C164.76 112.169 166.993 113.374 168.927 112.71L172.179 111.594L169.035 112.987C167.166 113.814 166.347 116.216 167.159 118.492L168.485 122.211L166.928 118.582C165.976 116.361 163.743 115.157 161.81 115.82L158.557 116.937L161.701 115.544C163.571 114.716 164.389 112.315 163.578 110.039L162.252 106.319Z" fill="white"/>
<path d="M162.252 106.319L163.808 109.949C164.76 112.169 166.993 113.374 168.927 112.71L172.179 111.594L169.035 112.987C167.166 113.814 166.347 116.216 167.159 118.492L168.485 122.211L166.928 118.582C165.976 116.361 163.743 115.157 161.81 115.82L158.557 116.937L161.701 115.544C163.571 114.716 164.389 112.315 163.578 110.039L162.252 106.319Z" fill="white"/>
<g filter="url(#filter2_f_82_30)">
<path d="M359.502 339.204L357.879 347.739C356.886 352.96 359.479 357.903 363.822 359.069L371.128 361.032L363.68 359.707C359.252 358.92 354.807 362.294 353.489 367.444L351.335 375.86L352.958 367.325C353.951 362.104 351.358 357.161 347.015 355.995L339.709 354.032L347.157 355.357C351.585 356.144 356.03 352.77 357.348 347.62L359.502 339.204Z" fill="white"/>
<path d="M359.502 339.204L357.879 347.739C356.886 352.96 359.479 357.903 363.822 359.069L371.128 361.032L363.68 359.707C359.252 358.92 354.807 362.294 353.489 367.444L351.335 375.86L352.958 367.325C353.951 362.104 351.358 357.161 347.015 355.995L339.709 354.032L347.157 355.357C351.585 356.144 356.03 352.77 357.348 347.62L359.502 339.204Z" fill="white"/>
</g>
<path d="M359.502 339.204L357.879 347.739C356.886 352.96 359.479 357.903 363.822 359.069L371.128 361.032L363.68 359.707C359.252 358.92 354.807 362.294 353.489 367.444L351.335 375.86L352.958 367.325C353.951 362.104 351.358 357.161 347.015 355.995L339.709 354.032L347.157 355.357C351.585 356.144 356.03 352.77 357.348 347.62L359.502 339.204Z" fill="white"/>
<path d="M359.502 339.204L357.879 347.739C356.886 352.96 359.479 357.903 363.822 359.069L371.128 361.032L363.68 359.707C359.252 358.92 354.807 362.294 353.489 367.444L351.335 375.86L352.958 367.325C353.951 362.104 351.358 357.161 347.015 355.995L339.709 354.032L347.157 355.357C351.585 356.144 356.03 352.77 357.348 347.62L359.502 339.204Z" fill="white"/>
<g filter="url(#filter3_f_82_30)">
<path d="M460.157 142.809L465.206 150.291C468.296 154.869 474.11 156.176 478.536 153.288L485.981 148.43L478.896 153.865C474.685 157.096 473.569 163.313 476.338 168.117L480.865 175.97L475.815 168.488C472.725 163.91 466.911 162.603 462.485 165.49L455.04 170.349L462.125 164.914C466.336 161.683 467.452 155.466 464.683 150.662L460.157 142.809Z" fill="white"/>
<path d="M460.157 142.809L465.206 150.291C468.296 154.869 474.11 156.176 478.536 153.288L485.981 148.43L478.896 153.865C474.685 157.096 473.569 163.313 476.338 168.117L480.865 175.97L475.815 168.488C472.725 163.91 466.911 162.603 462.485 165.49L455.04 170.349L462.125 164.914C466.336 161.683 467.452 155.466 464.683 150.662L460.157 142.809Z" fill="white"/>
</g>
<path d="M460.157 142.809L465.206 150.291C468.296 154.869 474.11 156.176 478.536 153.288L485.981 148.43L478.896 153.865C474.685 157.096 473.569 163.313 476.338 168.117L480.865 175.97L475.815 168.488C472.725 163.91 466.911 162.603 462.485 165.49L455.04 170.349L462.125 164.914C466.336 161.683 467.452 155.466 464.683 150.662L460.157 142.809Z" fill="white"/>
<path d="M460.157 142.809L465.206 150.291C468.296 154.869 474.11 156.176 478.536 153.288L485.981 148.43L478.896 153.865C474.685 157.096 473.569 163.313 476.338 168.117L480.865 175.97L475.815 168.488C472.725 163.91 466.911 162.603 462.485 165.49L455.04 170.349L462.125 164.914C466.336 161.683 467.452 155.466 464.683 150.662L460.157 142.809Z" fill="white"/>
<g filter="url(#filter4_f_82_30)">
<path d="M338.79 134.598L344.83 133.16C348.526 132.281 350.58 128.615 349.54 124.756L347.791 118.266L350 124.666C351.313 128.47 355.256 130.953 359.039 130.357L365.222 129.384L359.181 130.822C355.486 131.701 353.431 135.367 354.471 139.225L356.221 145.716L354.011 139.316C352.698 135.512 348.755 133.029 344.973 133.625L338.79 134.598Z" fill="white"/>
<path d="M338.79 134.598L344.83 133.16C348.526 132.281 350.58 128.615 349.54 124.756L347.791 118.266L350 124.666C351.313 128.47 355.256 130.953 359.039 130.357L365.222 129.384L359.181 130.822C355.486 131.701 353.431 135.367 354.471 139.225L356.221 145.716L354.011 139.316C352.698 135.512 348.755 133.029 344.973 133.625L338.79 134.598Z" fill="white"/>
</g>
<path d="M338.79 134.598L344.83 133.16C348.526 132.281 350.58 128.615 349.54 124.756L347.791 118.266L350 124.666C351.313 128.47 355.256 130.953 359.039 130.357L365.222 129.384L359.181 130.822C355.486 131.701 353.431 135.367 354.471 139.225L356.221 145.716L354.011 139.316C352.698 135.512 348.755 133.029 344.973 133.625L338.79 134.598Z" fill="white"/>
<path d="M338.79 134.598L344.83 133.16C348.526 132.281 350.58 128.615 349.54 124.756L347.791 118.266L350 124.666C351.313 128.47 355.256 130.953 359.039 130.357L365.222 129.384L359.181 130.822C355.486 131.701 353.431 135.367 354.471 139.225L356.221 145.716L354.011 139.316C352.698 135.512 348.755 133.029 344.973 133.625L338.79 134.598Z" fill="white"/>
<g filter="url(#filter5_f_82_30)">
<path d="M344.225 13.5164L340.491 20.6039C338.206 24.94 339.139 29.9956 342.63 32.1939L348.501 35.8919L342.332 32.7178C338.665 30.831 333.855 32.6088 331.305 36.7935L327.137 43.6335L330.871 36.5461C333.156 32.21 332.223 27.1543 328.733 24.9561L322.861 21.2581L329.03 24.4322C332.697 26.319 337.507 24.5411 340.057 20.3564L344.225 13.5164Z" fill="white"/>
<path d="M344.225 13.5164L340.491 20.6039C338.206 24.94 339.139 29.9956 342.63 32.1939L348.501 35.8919L342.332 32.7178C338.665 30.831 333.855 32.6088 331.305 36.7935L327.137 43.6335L330.871 36.5461C333.156 32.21 332.223 27.1543 328.733 24.9561L322.861 21.2581L329.03 24.4322C332.697 26.319 337.507 24.5411 340.057 20.3564L344.225 13.5164Z" fill="white"/>
</g>
<path d="M344.225 13.5164L340.491 20.6039C338.206 24.94 339.139 29.9956 342.63 32.1939L348.501 35.8919L342.332 32.7178C338.665 30.831 333.855 32.6088 331.305 36.7935L327.137 43.6335L330.871 36.5461C333.156 32.21 332.223 27.1543 328.733 24.9561L322.861 21.2581L329.03 24.4322C332.697 26.319 337.507 24.5411 340.057 20.3564L344.225 13.5164Z" fill="white"/>
<path d="M344.225 13.5164L340.491 20.6039C338.206 24.94 339.139 29.9956 342.63 32.1939L348.501 35.8919L342.332 32.7178C338.665 30.831 333.855 32.6088 331.305 36.7935L327.137 43.6335L330.871 36.5461C333.156 32.21 332.223 27.1543 328.733 24.9561L322.861 21.2581L329.03 24.4322C332.697 26.319 337.507 24.5411 340.057 20.3564L344.225 13.5164Z" fill="white"/>
<g filter="url(#filter6_f_82_30)">
<path d="M14.5441 395.519L18.0887 399.989C20.2573 402.723 23.826 403.557 26.2699 401.899L30.3812 399.111L26.5258 402.244C24.234 404.106 24.0028 407.763 25.9958 410.628L29.2535 415.311L25.7089 410.841C23.5404 408.107 19.9717 407.273 17.5277 408.931L13.4164 411.719L17.2718 408.587C19.5637 406.724 19.7949 403.067 17.8018 400.202L14.5441 395.519Z" fill="white"/>
<path d="M14.5441 395.519L18.0887 399.989C20.2573 402.723 23.826 403.557 26.2699 401.899L30.3812 399.111L26.5258 402.244C24.234 404.106 24.0028 407.763 25.9958 410.628L29.2535 415.311L25.7089 410.841C23.5404 408.107 19.9717 407.273 17.5277 408.931L13.4164 411.719L17.2718 408.587C19.5637 406.724 19.7949 403.067 17.8018 400.202L14.5441 395.519Z" fill="white"/>
</g>
<path d="M14.5441 395.519L18.0887 399.989C20.2573 402.723 23.826 403.557 26.2699 401.899L30.3812 399.111L26.5258 402.244C24.234 404.106 24.0028 407.763 25.9958 410.628L29.2535 415.311L25.7089 410.841C23.5404 408.107 19.9717 407.273 17.5277 408.931L13.4164 411.719L17.2718 408.587C19.5637 406.724 19.7949 403.067 17.8018 400.202L14.5441 395.519Z" fill="white"/>
<path d="M14.5441 395.519L18.0887 399.989C20.2573 402.723 23.826 403.557 26.2699 401.899L30.3812 399.111L26.5258 402.244C24.234 404.106 24.0028 407.763 25.9958 410.628L29.2535 415.311L25.7089 410.841C23.5404 408.107 19.9717 407.273 17.5277 408.931L13.4164 411.719L17.2718 408.587C19.5637 406.724 19.7949 403.067 17.8018 400.202L14.5441 395.519Z" fill="white"/>
<g filter="url(#filter7_f_82_30)">
<path d="M26.626 423.35L26.4047 426.112C26.2693 427.801 27.2608 429.279 28.6778 429.499L31.0613 429.871L28.6546 429.706C27.224 429.609 25.9307 430.831 25.6897 432.509L25.296 435.251L25.5172 432.49C25.6526 430.8 24.6611 429.322 23.2442 429.102L20.8606 428.731L23.2673 428.895C24.698 428.992 25.9913 427.77 26.2322 426.092L26.626 423.35Z" fill="white"/>
<path d="M26.626 423.35L26.4047 426.112C26.2693 427.801 27.2608 429.279 28.6778 429.499L31.0613 429.871L28.6546 429.706C27.224 429.609 25.9307 430.831 25.6897 432.509L25.296 435.251L25.5172 432.49C25.6526 430.8 24.6611 429.322 23.2442 429.102L20.8606 428.731L23.2673 428.895C24.698 428.992 25.9913 427.77 26.2322 426.092L26.626 423.35Z" fill="white"/>
</g>
<path d="M26.626 423.35L26.4047 426.112C26.2693 427.801 27.2608 429.279 28.6778 429.499L31.0613 429.871L28.6546 429.706C27.224 429.609 25.9307 430.831 25.6897 432.509L25.296 435.251L25.5172 432.49C25.6526 430.8 24.6611 429.322 23.2442 429.102L20.8606 428.731L23.2673 428.895C24.698 428.992 25.9913 427.77 26.2322 426.092L26.626 423.35Z" fill="white"/>
<path d="M26.626 423.35L26.4047 426.112C26.2693 427.801 27.2608 429.279 28.6778 429.499L31.0613 429.871L28.6546 429.706C27.224 429.609 25.9307 430.831 25.6897 432.509L25.296 435.251L25.5172 432.49C25.6526 430.8 24.6611 429.322 23.2442 429.102L20.8606 428.731L23.2673 428.895C24.698 428.992 25.9913 427.77 26.2322 426.092L26.626 423.35Z" fill="white"/>
<g filter="url(#filter8_f_82_30)">
<path d="M250.005 354.447L250.041 360.892C250.063 364.835 252.656 368.063 255.984 368.293L261.583 368.679L255.971 368.777C252.636 368.836 249.881 371.927 249.656 375.863L249.288 382.298L249.252 375.853C249.23 371.91 246.638 368.681 243.31 368.452L237.71 368.065L243.322 367.967C246.658 367.909 249.413 364.818 249.637 360.881L250.005 354.447Z" fill="white"/>
<path d="M250.005 354.447L250.041 360.892C250.063 364.835 252.656 368.063 255.984 368.293L261.583 368.679L255.971 368.777C252.636 368.836 249.881 371.927 249.656 375.863L249.288 382.298L249.252 375.853C249.23 371.91 246.638 368.681 243.31 368.452L237.71 368.065L243.322 367.967C246.658 367.909 249.413 364.818 249.637 360.881L250.005 354.447Z" fill="white"/>
</g>
<path d="M250.005 354.447L250.041 360.892C250.063 364.835 252.656 368.063 255.984 368.293L261.583 368.679L255.971 368.777C252.636 368.836 249.881 371.927 249.656 375.863L249.288 382.298L249.252 375.853C249.23 371.91 246.638 368.681 243.31 368.452L237.71 368.065L243.322 367.967C246.658 367.909 249.413 364.818 249.637 360.881L250.005 354.447Z" fill="white"/>
<path d="M250.005 354.447L250.041 360.892C250.063 364.835 252.656 368.063 255.984 368.293L261.583 368.679L255.971 368.777C252.636 368.836 249.881 371.927 249.656 375.863L249.288 382.298L249.252 375.853C249.23 371.91 246.638 368.681 243.31 368.452L237.71 368.065L243.322 367.967C246.658 367.909 249.413 364.818 249.637 360.881L250.005 354.447Z" fill="white"/>
<g filter="url(#filter9_f_82_30)">
<path d="M126.647 266.324L130.653 270.383C133.104 272.866 136.741 273.308 138.991 271.397L142.775 268.181L139.282 271.711C137.206 273.81 137.372 277.469 139.662 280.101L143.407 284.403L139.4 280.344C136.949 277.861 133.313 277.419 131.063 279.33L127.279 282.546L130.772 279.016C132.848 276.917 132.682 273.257 130.391 270.626L126.647 266.324Z" fill="white"/>
<path d="M126.647 266.324L130.653 270.383C133.104 272.866 136.741 273.308 138.991 271.397L142.775 268.181L139.282 271.711C137.206 273.81 137.372 277.469 139.662 280.101L143.407 284.403L139.4 280.344C136.949 277.861 133.313 277.419 131.063 279.33L127.279 282.546L130.772 279.016C132.848 276.917 132.682 273.257 130.391 270.626L126.647 266.324Z" fill="white"/>
</g>
<path d="M126.647 266.324L130.653 270.383C133.104 272.866 136.741 273.308 138.991 271.397L142.775 268.181L139.282 271.711C137.206 273.81 137.372 277.469 139.662 280.101L143.407 284.403L139.4 280.344C136.949 277.861 133.313 277.419 131.063 279.33L127.279 282.546L130.772 279.016C132.848 276.917 132.682 273.257 130.391 270.626L126.647 266.324Z" fill="white"/>
<path d="M126.647 266.324L130.653 270.383C133.104 272.866 136.741 273.308 138.991 271.397L142.775 268.181L139.282 271.711C137.206 273.81 137.372 277.469 139.662 280.101L143.407 284.403L139.4 280.344C136.949 277.861 133.313 277.419 131.063 279.33L127.279 282.546L130.772 279.016C132.848 276.917 132.682 273.257 130.391 270.626L126.647 266.324Z" fill="white"/>
<g filter="url(#filter10_f_82_30)">
<path d="M136.859 40.3043L146.002 54.9147L162.773 50.9408L148.163 60.0836L152.137 76.8544L142.994 62.2441L126.223 66.218L140.833 57.0752L136.859 40.3043Z" fill="white"/>
</g>
<path d="M136.859 40.3043L146.002 54.9147L162.773 50.9408L148.163 60.0836L152.137 76.8544L142.994 62.2441L126.223 66.218L140.833 57.0752L136.859 40.3043Z" fill="white"/>
<g filter="url(#filter11_f_82_30)">
<path d="M38.9349 111.094L38.0397 115.938C37.492 118.901 38.9223 121.706 41.3186 122.368L45.3497 123.482L41.2402 122.73C38.7973 122.283 36.3448 124.198 35.6178 127.12L34.4294 131.897L35.3246 127.053C35.8723 124.09 34.442 121.285 32.0457 120.623L28.0146 119.509L32.1241 120.261C34.567 120.708 37.0195 118.793 37.7466 115.871L38.9349 111.094Z" fill="white"/>
<path d="M38.9349 111.094L38.0397 115.938C37.492 118.901 38.9223 121.706 41.3186 122.368L45.3497 123.482L41.2402 122.73C38.7973 122.283 36.3448 124.198 35.6178 127.12L34.4294 131.897L35.3246 127.053C35.8723 124.09 34.442 121.285 32.0457 120.623L28.0146 119.509L32.1241 120.261C34.567 120.708 37.0195 118.793 37.7466 115.871L38.9349 111.094Z" fill="white"/>
</g>
<path d="M38.9349 111.094L38.0397 115.938C37.492 118.901 38.9223 121.706 41.3186 122.368L45.3497 123.482L41.2402 122.73C38.7973 122.283 36.3448 124.198 35.6178 127.12L34.4294 131.897L35.3246 127.053C35.8723 124.09 34.442 121.285 32.0457 120.623L28.0146 119.509L32.1241 120.261C34.567 120.708 37.0195 118.793 37.7466 115.871L38.9349 111.094Z" fill="white"/>
<path d="M38.9349 111.094L38.0397 115.938C37.492 118.901 38.9223 121.706 41.3186 122.368L45.3497 123.482L41.2402 122.73C38.7973 122.283 36.3448 124.198 35.6178 127.12L34.4294 131.897L35.3246 127.053C35.8723 124.09 34.442 121.285 32.0457 120.623L28.0146 119.509L32.1241 120.261C34.567 120.708 37.0195 118.793 37.7466 115.871L38.9349 111.094Z" fill="white"/>
<defs>
<filter id="filter0_f_82_30" x="216.827" y="87.2274" width="46.491" height="48.9575" filterUnits="userSpaceOnUse" color-interpolation-filters="sRGB">
<feFlood flood-opacity="0" result="BackgroundImageFix"/>
<feBlend mode="normal" in="SourceGraphic" in2="BackgroundImageFix" result="shape"/>
<feGaussianBlur stdDeviation="2.75" result="effect1_foregroundBlur_82_30"/>
</filter>
<filter id="filter1_f_82_30" x="149.941" y="98.1476" width="30.8552" height="32.2351" filterUnits="userSpaceOnUse" color-interpolation-filters="sRGB">
<feFlood flood-opacity="0" result="BackgroundImageFix"/>
<feBlend mode="normal" in="SourceGraphic" in2="BackgroundImageFix" result="shape"/>
<feGaussianBlur stdDeviation="2.75" result="effect1_foregroundBlur_82_30"/>
</filter>
<filter id="filter2_f_82_30" x="330.125" y="330.204" width="50.5861" height="54.6561" filterUnits="userSpaceOnUse" color-interpolation-filters="sRGB">
<feFlood flood-opacity="0" result="BackgroundImageFix"/>
<feBlend mode="normal" in="SourceGraphic" in2="BackgroundImageFix" result="shape"/>
<feGaussianBlur stdDeviation="2.75" result="effect1_foregroundBlur_82_30"/>
</filter>
<filter id="filter3_f_82_30" x="439.186" y="126.35" width="62.6497" height="66.0794" filterUnits="userSpaceOnUse" color-interpolation-filters="sRGB">
<feFlood flood-opacity="0" result="BackgroundImageFix"/>
<feBlend mode="normal" in="SourceGraphic" in2="BackgroundImageFix" result="shape"/>
<feGaussianBlur stdDeviation="2.75" result="effect1_foregroundBlur_82_30"/>
</filter>
<filter id="filter4_f_82_30" x="329.075" y="110.158" width="45.8615" height="43.6649" filterUnits="userSpaceOnUse" color-interpolation-filters="sRGB">
<feFlood flood-opacity="0" result="BackgroundImageFix"/>
<feBlend mode="normal" in="SourceGraphic" in2="BackgroundImageFix" result="shape"/>
<feGaussianBlur stdDeviation="2.75" result="effect1_foregroundBlur_82_30"/>
</filter>
<filter id="filter5_f_82_30" x="308.816" y="0.699554" width="53.7294" height="55.7509" filterUnits="userSpaceOnUse" color-interpolation-filters="sRGB">
<feFlood flood-opacity="0" result="BackgroundImageFix"/>
<feBlend mode="normal" in="SourceGraphic" in2="BackgroundImageFix" result="shape"/>
<feGaussianBlur stdDeviation="2.75" result="effect1_foregroundBlur_82_30"/>
</filter>
<filter id="filter6_f_82_30" x="0.561707" y="383.715" width="42.6742" height="43.4004" filterUnits="userSpaceOnUse" color-interpolation-filters="sRGB">
<feFlood flood-opacity="0" result="BackgroundImageFix"/>
<feBlend mode="normal" in="SourceGraphic" in2="BackgroundImageFix" result="shape"/>
<feGaussianBlur stdDeviation="2.75" result="effect1_foregroundBlur_82_30"/>
</filter>
<filter id="filter7_f_82_30" x="14.6956" y="417.28" width="22.5308" height="24.0409" filterUnits="userSpaceOnUse" color-interpolation-filters="sRGB">
<feFlood flood-opacity="0" result="BackgroundImageFix"/>
<feBlend mode="normal" in="SourceGraphic" in2="BackgroundImageFix" result="shape"/>
<feGaussianBlur stdDeviation="2.75" result="effect1_foregroundBlur_82_30"/>
</filter>
<filter id="filter8_f_82_30" x="231.852" y="348.64" width="35.5892" height="39.4655" filterUnits="userSpaceOnUse" color-interpolation-filters="sRGB">
<feFlood flood-opacity="0" result="BackgroundImageFix"/>
<feBlend mode="normal" in="SourceGraphic" in2="BackgroundImageFix" result="shape"/>
<feGaussianBlur stdDeviation="2.75" result="effect1_foregroundBlur_82_30"/>
</filter>
<filter id="filter9_f_82_30" x="113.399" y="253.641" width="43.2554" height="43.4439" filterUnits="userSpaceOnUse" color-interpolation-filters="sRGB">
<feFlood flood-opacity="0" result="BackgroundImageFix"/>
<feBlend mode="normal" in="SourceGraphic" in2="BackgroundImageFix" result="shape"/>
<feGaussianBlur stdDeviation="2.75" result="effect1_foregroundBlur_82_30"/>
</filter>
<filter id="filter10_f_82_30" x="110.884" y="24.9658" width="67.2272" height="67.2272" filterUnits="userSpaceOnUse" color-interpolation-filters="sRGB">
<feFlood flood-opacity="0" result="BackgroundImageFix"/>
<feBlend mode="normal" in="SourceGraphic" in2="BackgroundImageFix" result="shape"/>
<feGaussianBlur stdDeviation="3.85" result="effect1_foregroundBlur_82_30"/>
</filter>
<filter id="filter11_f_82_30" x="20.2618" y="103.608" width="32.8406" height="35.7753" filterUnits="userSpaceOnUse" color-interpolation-filters="sRGB">
<feFlood flood-opacity="0" result="BackgroundImageFix"/>
<feBlend mode="normal" in="SourceGraphic" in2="BackgroundImageFix" result="shape"/>
<feGaussianBlur stdDeviation="2.75" result="effect1_foregroundBlur_82_30"/>
</filter>
</defs>
</svg>
