<svg width="431" height="325" viewBox="0 0 431 325" fill="none" xmlns="http://www.w3.org/2000/svg">
<path d="M225 116C270.84 116 308 153.16 308 199V324H265V193C265 170.908 247.091 153 225 153C202.909 153 185 170.908 185 193V324H142V199C142 153.16 179.16 116 225 116Z" fill="black"/>
<path d="M348 116C393.84 116 431 153.16 431 199V324H388V193C388 170.908 370.091 153 348 153C331.553 153 317.426 162.927 311.28 177.116C308.226 162.335 301.243 148.991 291.47 138.226C306.289 124.435 326.16 116 348 116Z" fill="black"/>
<rect x="70.5" y="0.5" width="165" height="36" rx="18" fill="black" stroke="black"/>
<mask id="path-4-inside-1_1_162" fill="white">
<path d="M117.415 291.397C113.284 300.742 102.359 304.968 93.014 300.836C83.6695 296.704 79.4438 285.779 83.5755 276.435L154.512 116H194.967L117.415 291.397ZM199.647 13.9199C203.779 4.57533 214.704 0.349729 224.048 4.48145C233.392 8.61332 237.618 19.5375 233.487 28.8818L197.178 111H156.723L199.647 13.9199Z"/>
</mask>
<path d="M117.415 291.397C113.284 300.742 102.359 304.968 93.014 300.836C83.6695 296.704 79.4438 285.779 83.5755 276.435L154.512 116H194.967L117.415 291.397ZM199.647 13.9199C203.779 4.57533 214.704 0.349729 224.048 4.48145C233.392 8.61332 237.618 19.5375 233.487 28.8818L197.178 111H156.723L199.647 13.9199Z" fill="black"/>
<path d="M117.415 291.397L118.33 291.802L118.33 291.802L117.415 291.397ZM93.014 300.836L92.6096 301.751H92.6096L93.014 300.836ZM83.5755 276.435L82.6609 276.03H82.6609L83.5755 276.435ZM154.512 116V115H153.861L153.597 115.596L154.512 116ZM194.967 116L195.882 116.404L196.503 115H194.967V116ZM199.647 13.9199L198.732 13.5155V13.5155L199.647 13.9199ZM224.048 4.48145L224.453 3.56687L224.453 3.56686L224.048 4.48145ZM233.487 28.8818L234.401 29.2862V29.2862L233.487 28.8818ZM197.178 111V112H197.829L198.093 111.404L197.178 111ZM156.723 111L155.808 110.596L155.187 112H156.723V111ZM117.415 291.397L116.501 290.993C112.592 299.832 102.258 303.83 93.4184 299.921L93.014 300.836L92.6096 301.751C102.459 306.106 113.975 301.651 118.33 291.802L117.415 291.397ZM93.014 300.836L93.4184 299.921C84.5791 296.013 80.5818 285.678 84.4901 276.839L83.5755 276.435L82.6609 276.03C78.3059 285.88 82.76 297.395 92.6096 301.751L93.014 300.836ZM83.5755 276.435L84.4901 276.839L155.427 116.404L154.512 116L153.597 115.596L82.6609 276.03L83.5755 276.435ZM154.512 116V117H194.967V116V115H154.512V116ZM194.967 116L194.053 115.596L116.501 290.993L117.415 291.397L118.33 291.802L195.882 116.404L194.967 116ZM199.647 13.9199L200.561 14.3243C204.47 5.48486 214.804 1.48764 223.644 5.39604L224.048 4.48145L224.453 3.56686C214.603 -0.78818 203.087 3.6658 198.732 13.5155L199.647 13.9199ZM224.048 4.48145L223.644 5.39602C232.483 9.30455 236.48 19.6382 232.572 28.4775L233.487 28.8818L234.401 29.2862C238.756 19.4367 234.302 7.92207 224.453 3.56687L224.048 4.48145ZM233.487 28.8818L232.572 28.4775L196.263 110.596L197.178 111L198.093 111.404L234.401 29.2862L233.487 28.8818ZM197.178 111V110H156.723V111V112H197.178V111ZM156.723 111L157.638 111.404L200.561 14.3243L199.647 13.9199L198.732 13.5155L155.808 110.596L156.723 111Z" fill="black" mask="url(#path-4-inside-1_1_162)"/>
<rect x="70.5" y="116.5" width="165" height="36" rx="18" fill="black" stroke="black"/>
<rect x="106.5" y="0.5" width="63" height="36" rx="18" transform="rotate(90 106.5 0.5)" fill="black" stroke="black"/>
<mask id="path-8-inside-2_1_162" fill="white">
<path d="M8.70253 228.905C12.8537 219.569 23.7865 215.366 33.1225 219.517C42.4584 223.668 46.6612 234.601 42.5101 243.937L40.0971 249.365C39.7215 250.209 39.2894 251.011 38.809 251.77C36.6801 256.983 36.2858 262.776 37.7455 268.269C39.5096 274.907 43.8358 280.561 49.7719 283.989C55.708 287.416 62.768 288.335 69.3988 286.544C76.0296 284.753 81.688 280.397 85.1293 274.437L116.797 292.721C108.487 307.115 94.8224 317.631 78.81 321.956C62.7974 326.282 45.7484 324.063 31.4135 315.786C17.0786 307.51 6.63163 293.855 2.37148 277.825C-1.23936 264.238 -0.155037 249.888 5.31972 237.065C5.56732 236.144 5.889 235.231 6.28847 234.332L8.70253 228.905Z"/>
</mask>
<path d="M8.70253 228.905C12.8537 219.569 23.7865 215.366 33.1225 219.517C42.4584 223.668 46.6612 234.601 42.5101 243.937L40.0971 249.365C39.7215 250.209 39.2894 251.011 38.809 251.77C36.6801 256.983 36.2858 262.776 37.7455 268.269C39.5096 274.907 43.8358 280.561 49.7719 283.989C55.708 287.416 62.768 288.335 69.3988 286.544C76.0296 284.753 81.688 280.397 85.1293 274.437L116.797 292.721C108.487 307.115 94.8224 317.631 78.81 321.956C62.7974 326.282 45.7484 324.063 31.4135 315.786C17.0786 307.51 6.63163 293.855 2.37148 277.825C-1.23936 264.238 -0.155037 249.888 5.31972 237.065C5.56732 236.144 5.889 235.231 6.28847 234.332L8.70253 228.905Z" fill="black"/>
<path d="M8.70253 228.905L9.61623 229.311L9.61627 229.311L8.70253 228.905ZM33.1225 219.517L33.5287 218.603L33.5287 218.603L33.1225 219.517ZM42.5101 243.937L41.5964 243.53L41.5964 243.531L42.5101 243.937ZM40.0971 249.365L41.0108 249.771L41.0108 249.771L40.0971 249.365ZM38.809 251.77L37.9643 251.235L37.9168 251.31L37.8832 251.392L38.809 251.77ZM37.7455 268.269L36.779 268.526V268.526L37.7455 268.269ZM49.7719 283.989L49.2719 284.855L49.7719 283.989ZM69.3988 286.544L69.6596 287.51L69.3988 286.544ZM85.1293 274.437L85.6293 273.571L84.7633 273.071L84.2633 273.937L85.1293 274.437ZM116.797 292.721L117.663 293.221L118.163 292.355L117.297 291.855L116.797 292.721ZM78.81 321.956L79.0707 322.922H79.0708L78.81 321.956ZM31.4135 315.786L30.9135 316.652L31.4135 315.786ZM2.37148 277.825L1.40502 278.082L1.40502 278.082L2.37148 277.825ZM5.31972 237.065L6.2394 237.457L6.26709 237.393L6.2854 237.324L5.31972 237.065ZM6.28847 234.332L5.37476 233.926L5.37472 233.926L6.28847 234.332ZM8.70253 228.905L9.61627 229.311C13.5431 220.48 23.8849 216.504 32.7162 220.431L33.1225 219.517L33.5287 218.603C23.6882 214.228 12.1644 218.658 7.78879 228.498L8.70253 228.905ZM33.1225 219.517L32.7162 220.431C41.5474 224.357 45.523 234.699 41.5964 243.53L42.5101 243.937L43.4239 244.343C47.7993 234.502 43.3693 222.979 33.5287 218.603L33.1225 219.517ZM42.5101 243.937L41.5964 243.531L39.1833 248.958L40.0971 249.365L41.0108 249.771L43.4239 244.343L42.5101 243.937ZM40.0971 249.365L39.1833 248.958C38.8279 249.758 38.4191 250.517 37.9643 251.235L38.809 251.77L39.6537 252.305C40.1598 251.506 40.615 250.661 41.0108 249.771L40.0971 249.365ZM38.809 251.77L37.8832 251.392C35.6727 256.804 35.2629 262.821 36.779 268.526L37.7455 268.269L38.712 268.012C37.3086 262.731 37.6875 257.161 39.7347 252.148L38.809 251.77ZM37.7455 268.269L36.779 268.526C38.6113 275.42 43.105 281.294 49.2719 284.855L49.7719 283.989L50.2719 283.122C44.5666 279.829 40.4079 274.394 38.712 268.012L37.7455 268.269ZM49.7719 283.989L49.2719 284.855C55.4387 288.415 62.7726 289.37 69.6596 287.51L69.3988 286.544L69.138 285.579C62.7634 287.301 55.9772 286.416 50.2719 283.122L49.7719 283.989ZM69.3988 286.544L69.6596 287.51C76.5464 285.649 82.4221 281.126 85.9953 274.937L85.1293 274.437L84.2633 273.937C80.9539 279.669 75.5128 283.857 69.138 285.579L69.3988 286.544ZM85.1293 274.437L84.6293 275.303L116.297 293.587L116.797 292.721L117.297 291.855L85.6293 273.571L85.1293 274.437ZM116.797 292.721L115.931 292.221C107.753 306.386 94.3057 316.734 78.5491 320.991L78.81 321.956L79.0708 322.922C95.3391 318.527 109.221 307.843 117.663 293.221L116.797 292.721ZM78.81 321.956L78.5492 320.991C62.7927 325.247 46.0176 323.063 31.9135 314.92L31.4135 315.786L30.9135 316.652C45.4792 325.062 62.802 327.317 79.0707 322.922L78.81 321.956ZM31.4135 315.786L31.9135 314.92C17.8094 306.777 7.52993 293.342 3.33793 277.569L2.37148 277.825L1.40502 278.082C5.73333 294.369 16.3478 308.243 30.9135 316.652L31.4135 315.786ZM2.37148 277.825L3.33793 277.569C-0.215181 264.199 0.851622 250.077 6.2394 237.457L5.31972 237.065L4.40003 236.672C-1.1617 249.699 -2.26355 264.278 1.40502 278.082L2.37148 277.825ZM5.31972 237.065L6.2854 237.324C6.51965 236.453 6.82403 235.589 7.20222 234.739L6.28847 234.332L5.37472 233.926C4.95396 234.872 4.61499 235.835 4.35404 236.805L5.31972 237.065ZM6.28847 234.332L7.20217 234.739L9.61623 229.311L8.70253 228.905L7.78883 228.498L5.37476 233.926L6.28847 234.332Z" fill="black" mask="url(#path-8-inside-2_1_162)"/>
</svg>
